<?xml version="1.0" encoding="UTF-8"?>
<svg version="1.1" xmlns="http://www.w3.org/2000/svg" width="361" height="323">
<path d="M0 0 C0 0.66 0 1.32 0 2 C0.7425 2.268125 1.485 2.53625 2.25 2.8125 C4.89061949 3.95276751 6.85552844 5.09380306 9 7 C9 7.66 9 8.32 9 9 C9.66 9 10.32 9 11 9 C16.00958484 15.56428359 19.51553674 23.15912512 22 31 C22.31453125 30.14277344 22.6290625 29.28554688 22.953125 28.40234375 C25.24173346 22.28789885 27.52496335 16.53431763 31 11 C31.66 11 32.32 11 33 11 C33.2165625 10.4328125 33.433125 9.865625 33.65625 9.28125 C38.19809583 1.57067452 48.72995583 -3.50103841 57 -6 C57.67933594 -6.22300781 58.35867187 -6.44601563 59.05859375 -6.67578125 C78.52733599 -12.08580981 99.11552543 -5.11340761 116.27197266 4.02001953 C119.79995344 6.02077043 122.91732868 8.38389515 126 11 C126.99 11.66 127.98 12.32 129 13 C129 13.66 129 14.32 129 15 C129.66 15 130.32 15 131 15 C135.32749323 18.7660887 138.24229603 23.2997782 140.84057617 28.36865234 C144.35990163 35.37429837 144.35990163 35.37429837 150.8125 39.5 C151.65425781 39.74234375 152.49601562 39.9846875 153.36328125 40.234375 C162.39002991 42.85547535 170.03294463 48.9067392 177 55 C177.68835938 55.58136719 178.37671875 56.16273437 179.0859375 56.76171875 C193.39188224 69.79539567 201.36389082 90.72711359 202.35546875 109.6640625 C202.81874187 123.93809768 201.80999177 136.6436046 194 148.9375 C192.56755314 151.30551371 191.92855705 152.38492084 192.25 155.15234375 C192.96620482 157.38673936 192.96620482 157.38673936 193.94702148 159.51245117 C197.517902 167.94827348 198.52757884 176.15274101 198.4375 185.25 C198.42847656 186.34755615 198.41945313 187.4451123 198.41015625 188.57592773 C198.02428399 206.7454198 191.26324579 226.01539383 178 239 C176.67827258 239.6893902 175.34686102 240.36110439 174 241 C173.67 241.66 173.34 242.32 173 243 C171.75491604 245.49016793 170.53283204 245.98686718 168 247 C168 247.66 168 248.32 168 249 C149.94922737 262 149.94922737 262 142 262 C141.690625 263.8871875 141.690625 263.8871875 141.375 265.8125 C139.10730249 276.08193014 132.53255762 285.84407026 125 293 C123.9171875 294.1446875 123.9171875 294.1446875 122.8125 295.3125 C121 297 121 297 119 297 C119 297.66 119 298.32 119 299 C105.71453283 309.94286064 88.10040672 315.95432134 71 315 C58.72058149 313.76598924 47.07421064 308.27295584 38 300 C37.42636719 299.47792969 36.85273438 298.95585937 36.26171875 298.41796875 C35 297 35 297 35 295 C34.34 295 33.68 295 33 295 C33 294.34 33 293.68 33 293 C32.34 293 31.68 293 31 293 C25.91848073 286.43758083 23.30088966 278.87716342 21 271 C20.61328125 272.01320313 20.2265625 273.02640625 19.828125 274.0703125 C19.30246032 275.42202167 18.77639737 276.773576 18.25 278.125 C17.87101562 279.12273437 17.87101562 279.12273437 17.484375 280.140625 C15.77117554 284.50928362 13.86254977 288.26472165 11 292 C10.34 292 9.68 292 9 292 C8.6596875 292.8353125 8.6596875 292.8353125 8.3125 293.6875 C6.62449964 296.66159588 4.53323483 298.72008865 2 301 C1.34 301 0.68 301 0 301 C0 301.66 0 302.32 0 303 C-17.05432021 311.90802581 -31.79708652 317.58561136 -51.19140625 311.98046875 C-71.18065524 305.00230255 -86.22948029 291.91472406 -96 273 C-97.64570762 269.33456029 -99 266.077235 -99 262 C-99.54527344 261.84144531 -100.09054688 261.68289063 -100.65234375 261.51953125 C-112.64347944 257.80945337 -124.79307337 250.62191398 -133 241 C-133 240.34 -133 239.68 -133 239 C-133.61875 238.773125 -134.2375 238.54625 -134.875 238.3125 C-137.61410209 236.62070165 -138.05024472 235.00755839 -139 232 C-139.66 232 -140.32 232 -141 232 C-152.77953705 211.07209398 -160.0348587 191.0561645 -153.95703125 166.984375 C-152.99413187 163.98170101 -151.74498571 161.24094391 -150.4375 158.375 C-149.13390321 155.00329101 -148.77827266 153.63857474 -149.9765625 150.1875 C-151.03819001 148.30481082 -152.15685405 146.45322525 -153.328125 144.63671875 C-158.92195406 135.81467525 -159.16395753 125.82295146 -159.125 115.6875 C-159.12886719 114.69298828 -159.13273438 113.69847656 -159.13671875 112.67382812 C-159.10869774 91.33583254 -151.29372571 71.77934126 -136.2890625 56.2265625 C-134.58435642 54.71393598 -132.83850385 53.34672298 -131 52 C-130.24976563 51.43796875 -129.49953125 50.8759375 -128.7265625 50.296875 C-121.68866651 45.19051513 -114.20707079 39.984608 -105.6875 37.875 C-102.67860998 36.87409613 -102.00260838 36.00407813 -100.24609375 33.2578125 C-98.72846027 30.20791775 -97.36140942 27.12170312 -96 24 C-95.01 22.515 -95.01 22.515 -94 21 C-93.34 21 -92.68 21 -92 21 C-91.75636719 20.43410156 -91.51273437 19.86820313 -91.26171875 19.28515625 C-83.86056818 5.88059563 -64.93819655 -1.45328389 -51.03515625 -5.58203125 C-32.96877473 -10.29707947 -16.69678338 -8.31552401 0 0 Z " fill="#FEA34B" transform="translate(159,8)"/>
<path d="M0 0 C0 0.66 0 1.32 0 2 C0.7425 2.268125 1.485 2.53625 2.25 2.8125 C4.89061949 3.95276751 6.85552844 5.09380306 9 7 C9 7.66 9 8.32 9 9 C9.66 9 10.32 9 11 9 C12.50326123 10.96979058 13.74790224 12.87186115 15 15 C15.42925781 15.70382813 15.85851562 16.40765625 16.30078125 17.1328125 C23.74549013 30.44105315 22.26466647 46.49131827 22.16699219 61.25268555 C22.15982743 63.47332505 22.15353972 65.69396753 22.14805603 67.91461182 C22.13053214 73.90819886 22.10010364 79.9016547 22.06672192 85.89517188 C22.0333558 92.18536308 22.01019565 98.4755936 21.9854126 104.76582336 C21.93938031 115.99766905 21.88307005 127.22943903 21.8225961 138.46121339 C21.76815285 148.6255636 21.72421431 158.7899148 21.68798828 168.9543457 C21.64129071 182.05500431 21.58454214 195.1555906 21.51981354 208.25617409 C21.49539845 213.24591136 21.47495805 218.23564124 21.45778656 223.22540855 C21.43711715 229.1032741 21.40681314 234.98101437 21.36920357 240.85879517 C21.35697991 243.01015911 21.34804037 245.16154473 21.34270287 247.31293678 C21.27233373 273.69345927 21.27233373 273.69345927 16 283.5 C15.484375 284.4796875 14.96875 285.459375 14.4375 286.46875 C13.36550758 288.35638883 12.20414005 290.19378993 11 292 C10.34 292 9.68 292 9 292 C8.6596875 292.8353125 8.6596875 292.8353125 8.3125 293.6875 C6.62449964 296.66159588 4.53323483 298.72008865 2 301 C1.34 301 0.68 301 0 301 C0 301.66 0 302.32 0 303 C-17.05432021 311.90802581 -31.79708652 317.58561136 -51.19140625 311.98046875 C-71.18065524 305.00230255 -86.22948029 291.91472406 -96 273 C-97.64570762 269.33456029 -99 266.077235 -99 262 C-99.54527344 261.84144531 -100.09054688 261.68289063 -100.65234375 261.51953125 C-112.64347944 257.80945337 -124.79307337 250.62191398 -133 241 C-133 240.34 -133 239.68 -133 239 C-133.61875 238.773125 -134.2375 238.54625 -134.875 238.3125 C-137.61410209 236.62070165 -138.05024472 235.00755839 -139 232 C-139.66 232 -140.32 232 -141 232 C-152.77953705 211.07209398 -160.0348587 191.0561645 -153.95703125 166.984375 C-152.99413187 163.98170101 -151.74498571 161.24094391 -150.4375 158.375 C-149.13390321 155.00329101 -148.77827266 153.63857474 -149.9765625 150.1875 C-151.03819001 148.30481082 -152.15685405 146.45322525 -153.328125 144.63671875 C-158.92195406 135.81467525 -159.16395753 125.82295146 -159.125 115.6875 C-159.12886719 114.69298828 -159.13273438 113.69847656 -159.13671875 112.67382812 C-159.10869774 91.33583254 -151.29372571 71.77934126 -136.2890625 56.2265625 C-134.58435642 54.71393598 -132.83850385 53.34672298 -131 52 C-130.24976563 51.43796875 -129.49953125 50.8759375 -128.7265625 50.296875 C-121.68866651 45.19051513 -114.20707079 39.984608 -105.6875 37.875 C-102.67860998 36.87409613 -102.00260838 36.00407813 -100.24609375 33.2578125 C-98.72846027 30.20791775 -97.36140942 27.12170312 -96 24 C-95.01 22.515 -95.01 22.515 -94 21 C-93.34 21 -92.68 21 -92 21 C-91.75636719 20.43410156 -91.51273437 19.86820313 -91.26171875 19.28515625 C-83.86056818 5.88059563 -64.93819655 -1.45328389 -51.03515625 -5.58203125 C-32.96877473 -10.29707947 -16.69678338 -8.31552401 0 0 Z " fill="#48ADD2" transform="translate(159,8)"/>
<path d="M0 0 C0 0.66 0 1.32 0 2 C0.7425 2.268125 1.485 2.53625 2.25 2.8125 C4.89061949 3.95276751 6.85552844 5.09380306 9 7 C9 7.66 9 8.32 9 9 C9.66 9 10.32 9 11 9 C12.50326123 10.96979058 13.74790224 12.87186115 15 15 C15.42925781 15.70382813 15.85851562 16.40765625 16.30078125 17.1328125 C20.22689956 24.15118329 21.23341879 31.05959164 22 39 C20.046875 38.3515625 20.046875 38.3515625 18 37 C17.390625 34.3984375 17.390625 34.3984375 17.25 31.375 C17.19328125 30.37210938 17.1365625 29.36921875 17.078125 28.3359375 C17.03945313 27.17964844 17.03945313 27.17964844 17 26 C15.35 25.34 13.7 24.68 12 24 C12.04125 22.88625 12.0825 21.7725 12.125 20.625 C12.41121859 16.95633975 12.41121859 16.95633975 10 15 C9.34 15 8.68 15 8 15 C7.01 12.03 7.01 12.03 6 9 C5.34 9 4.68 9 4 9 C4 8.34 4 7.68 4 7 C2.35 6.67 0.7 6.34 -1 6 C-1.33 5.01 -1.66 4.02 -2 3 C-2.66 3 -3.32 3 -4 3 C-4.33 2.34 -4.66 1.68 -5 1 C-7.74716664 0.64127907 -10.4709277 0.55594291 -13.23828125 0.44140625 C-16.34259124 -0.05475645 -17.61890538 -1.02343544 -20 -3 C-22.64934822 -3.71433121 -22.64934822 -3.71433121 -25 -4 C-25.33 -2.68 -25.66 -1.36 -26 0 C-26.66 0 -27.32 0 -28 0 C-28 -0.99 -28 -1.98 -28 -3 C-29.093125 -3 -30.18625 -3 -31.3125 -3 C-33.54166667 -3 -35.77083333 -3 -38 -3 C-39.2375 -2.505 -39.2375 -2.505 -40.5 -2 C-43.53576384 -0.78569446 -45.87336508 -0.9974673 -49.125 -1.0625 C-51.89674453 -1.3337793 -51.89674453 -1.3337793 -53 0 C-55.33297433 0.04092937 -57.66705225 0.04241723 -60 0 C-60.20882812 0.60585937 -60.41765625 1.21171875 -60.6328125 1.8359375 C-62.53811213 4.85175463 -64.57294766 5.37361097 -67.875 6.625 C-74.41590371 8.58400092 -74.41590371 8.58400092 -79 13 C-80.25541557 15.51083114 -81.50063488 15.87125446 -84 17 C-84.33 17.66 -84.66 18.32 -85 19 C-85.66 18.67 -86.32 18.34 -87 18 C-87 18.99 -87 19.98 -87 21 C-87.804375 21.639375 -88.60875 22.27875 -89.4375 22.9375 C-92.14952078 25.12034599 -92.58645383 25.6916306 -93 29 C-93.3125 31.125 -93.3125 31.125 -94 33 C-94.639375 33.309375 -95.27875 33.61875 -95.9375 33.9375 C-96.618125 34.288125 -97.29875 34.63875 -98 35 C-98.2475 35.804375 -98.495 36.60875 -98.75 37.4375 C-100.23220579 40.47602187 -100.80645116 40.55497098 -103.875 41.625 C-104.95007813 41.96724609 -104.95007813 41.96724609 -106.046875 42.31640625 C-108.40968957 43.14339135 -110.02381132 44.48492202 -112 46 C-114 46.66666667 -116 47.33333333 -118 48 C-119.35113205 48.97581759 -120.68946944 49.97029741 -122 51 C-122.66 51 -123.32 51 -124 51 C-124 52.98 -124 54.96 -124 57 C-126.31 56.67 -128.62 56.34 -131 56 C-131.061875 56.928125 -131.12375 57.85625 -131.1875 58.8125 C-132 62 -132 62 -134.375 63.6875 C-135.24125 64.120625 -136.1075 64.55375 -137 65 C-139.71624912 67.29836464 -141.2270063 69.93135706 -143 73 C-143.40605469 73.62390625 -143.81210938 74.2478125 -144.23046875 74.890625 C-146.80382409 78.84498922 -148.6918972 82.42164022 -150 87 C-150.495 87.99 -150.495 87.99 -151 89 C-151.66 89 -152.32 89 -153 89 C-152.690625 89.86625 -152.690625 89.86625 -152.375 90.75 C-152 93 -152 93 -152.90625 94.75390625 C-157.48274359 104.15206274 -156.879542 116.28154575 -154 126 C-153.92596322 128.33215844 -153.90484114 130.66860788 -154 133 C-153.01 133.33 -152.02 133.66 -151 134 C-151.66 134 -152.32 134 -153 134 C-152.67 134.99 -152.34 135.98 -152 137 C-151.93259135 138.56118428 -151.91485544 140.1250252 -151.9375 141.6875 C-151.94652344 142.49574219 -151.95554688 143.30398437 -151.96484375 144.13671875 C-151.97644531 144.75160156 -151.98804688 145.36648437 -152 146 C-154 145 -154 145 -155.03515625 142.48828125 C-155.54369141 140.91626953 -155.54369141 140.91626953 -156.0625 139.3125 C-156.40410156 138.27738281 -156.74570313 137.24226562 -157.09765625 136.17578125 C-159.05185483 129.29801742 -159.15229904 122.78979946 -159.125 115.6875 C-159.12886719 114.69298828 -159.13273438 113.69847656 -159.13671875 112.67382812 C-159.10869774 91.33583254 -151.29372571 71.77934126 -136.2890625 56.2265625 C-134.58435642 54.71393598 -132.83850385 53.34672298 -131 52 C-130.24976563 51.43796875 -129.49953125 50.8759375 -128.7265625 50.296875 C-121.68866651 45.19051513 -114.20707079 39.984608 -105.6875 37.875 C-102.67860998 36.87409613 -102.00260838 36.00407813 -100.24609375 33.2578125 C-98.72846027 30.20791775 -97.36140942 27.12170312 -96 24 C-95.01 22.515 -95.01 22.515 -94 21 C-93.34 21 -92.68 21 -92 21 C-91.75636719 20.43410156 -91.51273437 19.86820313 -91.26171875 19.28515625 C-83.86056818 5.88059563 -64.93819655 -1.45328389 -51.03515625 -5.58203125 C-32.96877473 -10.29707947 -16.69678338 -8.31552401 0 0 Z " fill="#77DCB4" transform="translate(159,8)"/>
<path d="M0 0 C0.33 0 0.66 0 1 0 C1.89655107 47.30401954 2.26984451 94.60517015 2.51740873 141.9164902 C2.567991 151.55731181 2.62243682 161.19811068 2.67708123 170.83890998 C2.78877671 190.55925205 2.89601865 210.27961582 3 230 C3.66 230 4.32 230 5 230 C5.33 231.32 5.66 232.64 6 234 C5.34 234 4.68 234 4 234 C5.52555966 238.81122847 5.52555966 238.81122847 9 242 C9.82395195 243.53515258 10.58583132 245.10397769 11.3125 246.6875 C14.36999641 252.9638856 17.51531182 257.84079294 24 261 C26.19130534 261.69579454 26.19130534 261.69579454 28 262 C28 262.99 28 263.98 28 265 C28.66 265 29.32 265 30 265 C30 265.66 30 266.32 30 267 C31.98 267.33 33.96 267.66 36 268 C36 268.66 36 269.32 36 270 C48.36393895 272.57869863 60.6997459 273.24147873 73 270 C73 269.34 73 268.68 73 268 C73.9075 267.87625 74.815 267.7525 75.75 267.625 C78.62571885 267.07197714 80.44951366 266.31921707 83 265 C83.99 265 84.98 265 86 265 C86.185625 264.360625 86.37125 263.72125 86.5625 263.0625 C88 261 88 261 91.625 260.25 C92.73875 260.1675 93.8525 260.085 95 260 C95 259.34 95 258.68 95 258 C95.99 258 96.98 258 98 258 C98 258.66 98 259.32 98 260 C84.71453283 270.94286064 67.10040672 276.95432134 50 276 C37.72058149 274.76598924 26.07421064 269.27295584 17 261 C16.42636719 260.47792969 15.85273438 259.95585937 15.26171875 259.41796875 C14 258 14 258 14 256 C13.34 256 12.68 256 12 256 C12 255.34 12 254.68 12 254 C11.34 254 10.68 254 10 254 C4.91848073 247.43758083 2.30088966 239.87716342 0 232 C-0.33 232 -0.66 232 -1 232 C-0.67 155.44 -0.34 78.88 0 0 Z " fill="#D6CB88" transform="translate(180,47)"/>
<path d="M0 0 C2.32828076 0.38557516 3.6636704 0.64670421 5.31640625 2.3828125 C5.72761719 2.95773438 6.13882812 3.53265625 6.5625 4.125 C14.68348738 14.14225854 27.83760462 18.9993219 40.30615234 20.36108398 C45.27682612 20.79653311 50.24594846 21.23054347 55.22265625 21.59179688 C56.43566406 21.70201172 57.64867188 21.81222656 58.8984375 21.92578125 C60.54851807 22.05593628 60.54851807 22.05593628 62.23193359 22.1887207 C65 23 65 23 66.88134766 25.56713867 C67.43508057 26.77140503 67.43508057 26.77140503 68 28 C66.68 28 65.36 28 64 28 C63.58621094 27.51660156 63.17242187 27.03320312 62.74609375 26.53515625 C59.94815023 24.07521933 56.62186657 24.50897478 53.0625 24.4375 C45.26639925 24.13876703 37.34277704 23.71906537 29.86328125 21.3125 C27.66935153 20.72593781 27.66935153 20.72593781 25 23 C24.505 20.525 24.505 20.525 24 18 C23.14535156 17.80277344 23.14535156 17.80277344 22.2734375 17.6015625 C14.61165358 15.57421761 9.62782913 12.46081244 5 6 C2.33411045 8.48428944 1.33521183 10.61746335 0 14 C-0.99 14.495 -0.99 14.495 -2 15 C-3.81276899 23.00354613 -4.98909362 34.71556818 -1 42 C-1 45 -1 45 -2 48 C-1.34 48 -0.68 48 0 48 C-0.33 49.32 -0.66 50.64 -1 52 C-2.90318884 49.14521674 -3.4619099 47.58058692 -4.125 44.3125 C-4.29257813 43.50425781 -4.46015625 42.69601563 -4.6328125 41.86328125 C-4.75398437 41.24839844 -4.87515625 40.63351563 -5 40 C-5.66 40 -6.32 40 -7 40 C-7.466108 25.58517848 -5.93323675 13.3422532 0 0 Z " fill="#4088EA" transform="translate(10,162)"/>
<path d="M0 0 C1.00933594 0.4434375 2.01867187 0.886875 3.05859375 1.34375 C4.56974028 2.04156493 6.07373957 2.75561979 7.5625 3.5 C7.5625 4.16 7.5625 4.82 7.5625 5.5 C8.305 5.768125 9.0475 6.03625 9.8125 6.3125 C12.45311949 7.45276751 14.41802844 8.59380306 16.5625 10.5 C16.5625 11.16 16.5625 11.82 16.5625 12.5 C17.2225 12.5 17.8825 12.5 18.5625 12.5 C20.06576123 14.46979058 21.31040224 16.37186115 22.5625 18.5 C22.99175781 19.20382813 23.42101562 19.90765625 23.86328125 20.6328125 C27.78939956 27.65118329 28.79591879 34.55959164 29.5625 42.5 C27.609375 41.8515625 27.609375 41.8515625 25.5625 40.5 C24.953125 37.8984375 24.953125 37.8984375 24.8125 34.875 C24.75578125 33.87210938 24.6990625 32.86921875 24.640625 31.8359375 C24.61484375 31.06507812 24.5890625 30.29421875 24.5625 29.5 C22.9125 28.84 21.2625 28.18 19.5625 27.5 C19.60375 26.38625 19.645 25.2725 19.6875 24.125 C19.97371859 20.45633975 19.97371859 20.45633975 17.5625 18.5 C16.9025 18.5 16.2425 18.5 15.5625 18.5 C14.9025 16.52 14.2425 14.54 13.5625 12.5 C12.9025 12.5 12.2425 12.5 11.5625 12.5 C11.5625 11.84 11.5625 11.18 11.5625 10.5 C9.0875 10.005 9.0875 10.005 6.5625 9.5 C6.0675 8.015 6.0675 8.015 5.5625 6.5 C4.9025 6.5 4.2425 6.5 3.5625 6.5 C3.0675 5.51 3.0675 5.51 2.5625 4.5 C-0.18466664 4.14127907 -2.9084277 4.05594291 -5.67578125 3.94140625 C-8.78009124 3.44524355 -10.05640538 2.47656456 -12.4375 0.5 C-15.08684822 -0.21433121 -15.08684822 -0.21433121 -17.4375 -0.5 C-17.7675 0.82 -18.0975 2.14 -18.4375 3.5 C-19.0975 3.5 -19.7575 3.5 -20.4375 3.5 C-20.4375 2.51 -20.4375 1.52 -20.4375 0.5 C-21.530625 0.5 -22.62375 0.5 -23.75 0.5 C-25.97916667 0.5 -28.20833333 0.5 -30.4375 0.5 C-31.2625 0.83 -32.0875 1.16 -32.9375 1.5 C-35.4375 2.5 -35.4375 2.5 -38.4375 2.5 C-38.4375 1.51 -38.4375 0.52 -38.4375 -0.5 C-37.4475 -0.5 -36.4575 -0.5 -35.4375 -0.5 C-35.4375 -1.16 -35.4375 -1.82 -35.4375 -2.5 C-32.29233435 -2.7000026 -29.14637688 -2.88264359 -26 -3.0625 C-25.12150391 -3.11857422 -24.24300781 -3.17464844 -23.33789062 -3.23242188 C-14.99762189 -3.69406037 -7.72735224 -3.45670893 0 0 Z " fill="#92E3B9" transform="translate(151.4375,4.5)"/>
<path d="M0 0 C0.66 0.33 1.32 0.66 2 1 C2 76.24 2 151.48 2 229 C1.67 229 1.34 229 1 229 C0.99576806 228.23636737 0.99153612 227.47273474 0.98717594 226.68596172 C0.8831885 207.97486457 0.77445943 189.26380024 0.66066074 170.55276012 C0.60573573 161.50369079 0.55232793 152.45461757 0.50268555 143.40551758 C0.45933718 135.5044681 0.41294502 127.60344289 0.36312145 119.7024315 C0.33692021 115.53152535 0.31209061 111.36062273 0.29092598 107.18968773 C0.20666837 90.75936276 0.07941067 74.35116741 -0.6710577 57.93431377 C-1.19211841 46.22035895 -0.87472923 34.52865742 -0.5625 22.8125 C-0.50901838 20.57488753 -0.45628214 18.33725711 -0.40429688 16.09960938 C-0.27805002 10.73283724 -0.14288487 5.36635371 0 0 Z " fill="#648EA4" transform="translate(178,45)"/>
<path d="M0 0 C0.33 0 0.66 0 1 0 C1.14061264 17.22955268 1.2461863 34.45892445 1.31087303 51.68892097 C1.34171628 59.69043365 1.38371221 67.69158832 1.45263672 75.69287109 C1.51273319 82.67269839 1.5512183 89.65226622 1.56453097 96.63234508 C1.57230418 100.32306567 1.59036821 104.01304446 1.63438034 107.70352554 C1.6832957 111.83929578 1.68392071 115.97380415 1.68115234 120.10986328 C1.71350983 121.91386093 1.71350983 121.91386093 1.746521 123.75430298 C1.67412587 133.81961153 -1.11735022 144.285273 -8 152 C-8.66 152 -9.32 152 -10 152 C-10.33 152.99 -10.66 153.98 -11 155 C-12.53445094 151.93109813 -11.54984289 149.29905734 -11 146 C-10.34 146 -9.68 146 -9 146 C-9 145.34 -9 144.68 -9 144 C-8.34 144.33 -7.68 144.66 -7 145 C-7 145.66 -7 146.32 -7 147 C-5.75622607 144.51245214 -5.86693765 142.77344699 -5.875 140 C-5.87113281 138.6696875 -5.87113281 138.6696875 -5.8671875 137.3125 C-5.84872098 134.97323034 -5.84872098 134.97323034 -7 133 C-6.360625 132.7525 -5.72125 132.505 -5.0625 132.25 C-2.81258459 131.18437567 -2.81258459 131.18437567 -2.25 128.875 C-2.1675 128.25625 -2.085 127.6375 -2 127 C-1.34 127 -0.68 127 0 127 C-0.16233124 125.69952728 -0.32466248 124.39905457 -0.49191284 123.05917358 C-1.01005134 118.37343817 -1.14167982 113.76371478 -1.12939453 109.05322266 C-1.13202301 107.78494377 -1.13202301 107.78494377 -1.13470459 106.49104309 C-1.1390775 103.7153615 -1.13619643 100.93974467 -1.1328125 98.1640625 C-1.13348797 96.20136503 -1.13446001 94.23866764 -1.13571167 92.27597046 C-1.13718345 88.15890711 -1.13505495 84.0418655 -1.13037109 79.92480469 C-1.12474106 74.73099628 -1.12799883 69.53723989 -1.13382339 64.34343338 C-1.15412162 42.87563524 -1.10780294 21.44500217 0 0 Z " fill="#598BE4" transform="translate(178,148)"/>
<path d="M0 0 C-0.32647103 4.24412339 -1.45931295 6.83065568 -3.75 10.3125 C-5.65202348 13.54910452 -5.65202348 13.54910452 -5.765625 17.19140625 C-5.0276836 19.38993559 -5.0276836 19.38993559 -4.05200195 21.51000977 C-0.48556378 29.95143537 0.52348387 38.14910047 0.4375 47.25 C0.43282715 48.33740479 0.4281543 49.42480957 0.42333984 50.54516602 C0.0505058 70.9494942 0.0505058 70.9494942 -6 77 C-5.85820962 74.77057252 -5.71140302 72.54146372 -5.5625 70.3125 C-5.48128906 69.07113281 -5.40007812 67.82976562 -5.31640625 66.55078125 C-5 63 -5 63 -4.49291992 60.60327148 C-3.62492967 56.01913078 -3.77364839 51.40282119 -3.75 46.75 C-3.729375 45.75097656 -3.70875 44.75195312 -3.6875 43.72265625 C-3.64974488 36.50198993 -4.2159267 29.68216146 -8.6953125 23.7578125 C-10.49627685 21.33136353 -10.21886131 19.82868052 -9.875 16.875 C-9.78992188 16.00617188 -9.70484375 15.13734375 -9.6171875 14.2421875 C-9 12 -9 12 -6 10 C-5.278678 7.84494418 -5.278678 7.84494418 -4.9375 5.4375 C-4.52734375 2.99609375 -4.52734375 2.99609375 -4 1 C-2 0 -2 0 0 0 Z " fill="#EC896A" transform="translate(357,146)"/>
<path d="M0 0 C1.32 0.33 2.64 0.66 4 1 C4.33 2.32 4.66 3.64 5 5 C5.66 5 6.32 5 7 5 C9.27690488 7.81035116 11.10822749 10.9216144 13 14 C13.38800781 14.59941406 13.77601563 15.19882813 14.17578125 15.81640625 C20.48455782 26.70452642 20.90563608 40.42463764 18.25 52.375 C17.63125 54.169375 17.63125 54.169375 17 56 C16.47212891 57.55460937 16.47212891 57.55460937 15.93359375 59.140625 C13.75466648 65.23342478 12.0697416 69.77521533 7 74 C5.21578891 76.01780984 3.4813869 78.07290331 1.74609375 80.1328125 C-0.04456911 82.04766003 -1.8113467 83.55880089 -4 85 C-4.66 85 -5.32 85 -6 85 C-6.226875 85.598125 -6.45375 86.19625 -6.6875 86.8125 C-9.79184257 91.98640429 -17.39710893 94.36661481 -23 96 C-23.99 95.67 -24.98 95.34 -26 95 C-25.26136719 94.6596875 -24.52273438 94.319375 -23.76171875 93.96875 C-11.72327673 88.21721989 -2.46601401 81.33402116 6 71 C6.49242187 70.43925781 6.98484375 69.87851563 7.4921875 69.30078125 C15.76501167 59.10105704 17.6796036 44.95336108 16.8125 32.25390625 C15.28485288 22.308287 9.89727404 13.52648805 3.515625 5.9375 C2.02799821 4.03579153 0.99794962 2.19157563 0 0 Z " fill="#F37F42" transform="translate(291,114)"/>
<path d="M0 0 C0.99 0 1.98 0 3 0 C3 0.66 3 1.32 3 2 C-10.64207598 13.23658916 -26.62634121 18.10051214 -44 17 C-46.3454669 16.71827405 -48.66625361 16.37134645 -51 16 C-51 15.34 -51 14.68 -51 14 C-49.11667969 14.03480469 -49.11667969 14.03480469 -47.1953125 14.0703125 C-38.52961383 14.18102309 -30.44552964 14.21522089 -22 12 C-22 11.34 -22 10.68 -22 10 C-21.0925 9.87625 -20.185 9.7525 -19.25 9.625 C-16.37428115 9.07197714 -14.55048634 8.31921707 -12 7 C-11.01 7 -10.02 7 -9 7 C-8.7215625 6.0409375 -8.7215625 6.0409375 -8.4375 5.0625 C-7 3 -7 3 -3.375 2.25 C-1.704375 2.12625 -1.704375 2.12625 0 2 C0 1.34 0 0.68 0 0 Z " fill="#EECC7B" transform="translate(275,305)"/>
<path d="M0 0 C0.66 0 1.32 0 2 0 C6.82879732 10.49738547 6.96618797 21.93824929 4 33 C3.77699219 33.88042969 3.55398438 34.76085937 3.32421875 35.66796875 C-0.51819729 48.28784703 -10.05252806 57.80920927 -20 66 C-20 63 -20 63 -18.625 61.3125 C-17 60 -17 60 -15 60 C-15 59.34 -15 58.68 -15 58 C-13.33333333 56.33333333 -11.66666667 54.66666667 -10 53 C-9.278125 51.906875 -8.55625 50.81375 -7.8125 49.6875 C-7.214375 48.800625 -6.61625 47.91375 -6 47 C-5.34 47 -4.68 47 -4 47 C-2.76079838 43.54793834 -1.79350928 40.14997413 -1.0625 36.5625 C-0.44084341 33.56362862 0.22902251 31.54195498 1.625 28.75 C5.10413749 19.2614432 2.84250812 9.39042862 0 0 Z " fill="#FEC058" transform="translate(303,134)"/>
<path d="M0 0 C0.66 0.33 1.32 0.66 2 1 C2.0234055 8.416306 2.04105624 15.83260375 2.05181217 23.24893951 C2.05698038 26.69445624 2.06396444 30.13994727 2.07543945 33.58544922 C2.17053406 62.87734979 2.17053406 62.87734979 1 76 C0.67 76 0.34 76 0 76 C-1.60323409 50.67180979 -0.6748832 25.34671419 0 0 Z " fill="#69C298" transform="translate(178,45)"/>
<path d="M0 0 C0.99 0.33 1.98 0.66 3 1 C-0.36667359 4.90188836 -4.0177022 6.69348585 -8.625 8.75 C-9.305625 9.06582031 -9.98625 9.38164062 -10.6875 9.70703125 C-15.71019345 12 -15.71019345 12 -18 12 C-18.20625 13.258125 -18.4125 14.51625 -18.625 15.8125 C-19.95204466 21.82211654 -22.85291413 26.76564382 -26 32 C-26.38800781 32.65871094 -26.77601563 33.31742187 -27.17578125 33.99609375 C-28.97414178 36.89152364 -29.66600699 37.888669 -33 39 C-33.1875 36.6875 -33.1875 36.6875 -33 34 C-31.6875 32.5 -31.6875 32.5 -30 31 C-29.484375 30.113125 -28.96875 29.22625 -28.4375 28.3125 C-27.963125 27.549375 -27.48875 26.78625 -27 26 C-26.34 26 -25.68 26 -25 26 C-24.9175 25.175 -24.835 24.35 -24.75 23.5 C-23.58600803 18.06803747 -21.06501673 13.59752509 -18 9 C-16.16015625 8.15625 -16.16015625 8.15625 -14.0625 7.5 C-11.65273834 6.7432898 -10.26058729 6.2652645 -8.4765625 4.44921875 C-6.07798523 2.09505958 -3.22942106 2.30466236 0 2 C0 1.34 0 0.68 0 0 Z " fill="#EFCB96" transform="translate(319,258)"/>
<path d="M0 0 C2.03833424 1.2739589 4.03852126 2.61061923 6 4 C6 4.66 6 5.32 6 6 C6.66 6 7.32 6 8 6 C9.50326123 7.96979058 10.74790224 9.87186115 12 12 C12.42925781 12.70382813 12.85851562 13.40765625 13.30078125 14.1328125 C17.22689956 21.15118329 18.23341879 28.05959164 19 36 C17.046875 35.3515625 17.046875 35.3515625 15 34 C14.390625 31.3984375 14.390625 31.3984375 14.25 28.375 C14.19328125 27.37210938 14.1365625 26.36921875 14.078125 25.3359375 C14.03945312 24.17964844 14.03945312 24.17964844 14 23 C11.525 22.01 11.525 22.01 9 21 C9.04125 19.88625 9.0825 18.7725 9.125 17.625 C9.41121859 13.95633975 9.41121859 13.95633975 7 12 C6.34 12 5.68 12 5 12 C4.34 10.02 3.68 8.04 3 6 C2.34 6 1.68 6 1 6 C0.67 4.02 0.34 2.04 0 0 Z " fill="#96E4BF" transform="translate(162,11)"/>
<path d="M0 0 C-5.55891623 0.37687568 -9.61419438 -0.07163168 -14.875 -1.9375 C-23.4176312 -4.81213095 -32.07047786 -4.81141453 -41 -5 C-41 -4.34 -41 -3.68 -41 -3 C-41.73605469 -2.90203125 -42.47210938 -2.8040625 -43.23046875 -2.703125 C-49.06076371 -1.80971124 -52.486888 -0.96606812 -57 3 C-59.12890625 2.61328125 -59.12890625 2.61328125 -61 2 C-44.79015358 -9.90927492 -17.0862494 -11.39083293 0 0 Z " fill="#F3D3BE" transform="translate(263,7)"/>
<path d="M0 0 C3.55702392 1.9761244 6.13747568 4.13747568 9 7 C9.99 7.33 10.98 7.66 12 8 C12.020625 8.7425 12.04125 9.485 12.0625 10.25 C13.25725538 13.75461579 15.02318445 14.41522166 18.234375 16.02734375 C20 17 20 17 22.0625 19.125 C25.37801962 22.33356737 29.09428331 22.87288187 33.5625 23.5 C36.70196939 23.95665009 39.1289243 24.69496559 42 26 C42 26.33 42 26.66 42 27 C31.33510868 28.37120031 22.92363866 24.39166315 14.5078125 18.15234375 C12.58617211 16.5026336 10.78149961 14.7988378 9 13 C8.0925 12.154375 7.185 11.30875 6.25 10.4375 C0 3.66666667 0 3.66666667 0 0 Z " fill="#4EB8D2" transform="translate(7,154)"/>
<path d="M0 0 C1 3 1 3 -0.37109375 6.0390625 C-1.04586381 7.24235201 -1.73561789 8.43732084 -2.4375 9.625 C-2.79859863 10.24584473 -3.15969727 10.86668945 -3.53173828 11.50634766 C-6.72275271 16.83483085 -10.32999539 21.85619309 -15 26 C-15.66 26 -16.32 26 -17 26 C-17.2475 26.61875 -17.495 27.2375 -17.75 27.875 C-19.20628639 30.35068687 -20.37812506 30.95125002 -23 32 C-23 32.66 -23 33.32 -23 34 C-24.65 34.66 -26.3 35.32 -28 36 C-27.319375 34.88625 -27.319375 34.88625 -26.625 33.75 C-25.31359204 31.53069422 -24.11719197 29.32032178 -23 27 C-21.68 27 -20.36 27 -19 27 C-19 26.34 -19 25.68 -19 25 C-18.01 25 -17.02 25 -16 25 C-16 24.01 -16 23.02 -16 22 C-15.34 22 -14.68 22 -14 22 C-14 21.01 -14 20.02 -14 19 C-13.34 18.67 -12.68 18.34 -12 18 C-11.67 17.01 -11.34 16.02 -11 15 C-10.34 14.67 -9.68 14.34 -9 14 C-8.09656316 12.11736119 -8.09656316 12.11736119 -7.375 9.9375 C-7.11460937 9.20402344 -6.85421875 8.47054687 -6.5859375 7.71484375 C-6.39257812 7.14894531 -6.19921875 6.58304688 -6 6 C-5.01 6 -4.02 6 -3 6 C-2.87625 5.195625 -2.7525 4.39125 -2.625 3.5625 C-2.315625 2.2940625 -2.315625 2.2940625 -2 1 C-1.34 0.67 -0.68 0.34 0 0 Z " fill="#F0AE7D" transform="translate(350,223)"/>
<path d="M0 0 C0.66 0.33 1.32 0.66 2 1 C-0.46941103 4.03384784 -2.71622755 6.75582371 -5.6875 9.3125 C-8.47515959 12.5522125 -8.88161771 14.95728163 -9.4453125 19.109375 C-9.62835938 19.73328125 -9.81140625 20.3571875 -10 21 C-10.99 21.33 -11.98 21.66 -13 22 C-13.91521187 24.00060057 -13.91521187 24.00060057 -14.5 26.375 C-15.43065642 29.77632763 -16.30696644 31.68099888 -19 34 C-19 24.52054894 -14.38555529 17.14174844 -10 9 C-9.34 9 -8.68 9 -8 9 C-7.79375 8.443125 -7.5875 7.88625 -7.375 7.3125 C-5.44999226 4.07498698 -2.96149098 2.31768859 0 0 Z " fill="#EEA36B" transform="translate(200,10)"/>
<path d="M0 0 C0.33 0 0.66 0 1 0 C0.9278125 0.62261719 0.855625 1.24523437 0.78125 1.88671875 C-0.25913048 12.24717437 -0.09500704 22.59892113 0 33 C0.66 31.68 1.32 30.36 2 29 C3.17571451 32.67410785 3.07366746 36.16929183 3 40 C3.99 40.33 4.98 40.66 6 41 C5.34 41 4.68 41 4 41 C4.33 41.99 4.66 42.98 5 44 C5.06740865 45.56118428 5.08514456 47.1250252 5.0625 48.6875 C5.05347656 49.49574219 5.04445313 50.30398437 5.03515625 51.13671875 C5.02355469 51.75160156 5.01195312 52.36648437 5 53 C3 52 3 52 1.96484375 49.48828125 C1.62582031 48.44027344 1.28679687 47.39226562 0.9375 46.3125 C0.59589844 45.27738281 0.25429688 44.24226563 -0.09765625 43.17578125 C-2.05185483 36.29801742 -2.15229904 29.78979946 -2.125 22.6875 C-2.12886719 21.69298828 -2.13273438 20.69847656 -2.13671875 19.67382812 C-2.11644174 4.23288348 -2.11644174 4.23288348 0 0 Z " fill="#A5EDD5" transform="translate(2,101)"/>
<path d="M0 0 C0.66 0.33 1.32 0.66 2 1 C1.236875 1.70125 0.47375 2.4025 -0.3125 3.125 C-4.47416139 7.57700986 -6.43729357 12.17359628 -7.3125 18.125 C-8 20 -8 20 -9.9375 20.9375 C-12.75463965 22.38875376 -12.95873405 24.09933057 -14 27 C-14.66 27.33 -15.32 27.66 -16 28 C-16 27.34 -16 26.68 -16 26 C-18.97 26.66 -21.94 27.32 -25 28 C-24.67 27.34 -24.34 26.68 -24 26 C-22.783125 25.71125 -21.56625 25.4225 -20.3125 25.125 C-17.07462211 24.02051741 -16.10680114 23.16427365 -14.20703125 20.2421875 C-12.71909887 17.1928446 -11.35608759 14.1095002 -10 11 C-9.34 10.01 -8.68 9.02 -8 8 C-7.34 8 -6.68 8 -6 8 C-5.7525 7.4225 -5.505 6.845 -5.25 6.25 C-3.83316683 3.6997003 -2.12372463 1.98214299 0 0 Z " fill="#9DE7C5" transform="translate(73,21)"/>
<path d="M0 0 C2 1 2 1 2.62182617 2.86328125 C3.95528504 9.61606237 4.33431063 16.12529088 4.3125 23 C4.32861328 24.01578125 4.34472656 25.0315625 4.36132812 26.078125 C4.36568226 32.87056868 3.33144602 38.62050033 1 45 C0.67 45 0.34 45 0 45 C0.0721875 43.94683594 0.144375 42.89367187 0.21875 41.80859375 C1.81742844 25.27033768 1.81742844 25.27033768 0 9 C-0.06548492 7.41788427 -0.08578381 5.83329919 -0.0625 4.25 C-0.05347656 3.45078125 -0.04445313 2.6515625 -0.03515625 1.828125 C-0.02355469 1.22484375 -0.01195312 0.6215625 0 0 Z " fill="#EDB5A9" transform="translate(357,101)"/>
<path d="M0 0 C22.19335605 -0.620954 22.19335605 -0.620954 30 3 C30.495 3.99 30.495 3.99 31 5 C24.3703504 4.10754717 24.3703504 4.10754717 22.2109375 3.48046875 C19.08723524 2.80164299 16.06815837 2.78999781 12.875 2.75 C11.63492188 2.72421875 10.39484375 2.6984375 9.1171875 2.671875 C7.57417969 2.83429687 7.57417969 2.83429687 6 3 C5.01 4.485 5.01 4.485 4 6 C1.49642139 5.1654738 -0.66785852 4.20628008 -3 3 C-3 3.66 -3 4.32 -3 5 C-5.31 4.67 -7.62 4.34 -10 4 C-10 4.66 -10 5.32 -10 6 C-10.99 6.66 -11.98 7.32 -13 8 C-13.99 7.67 -14.98 7.34 -16 7 C-11.38747198 2.0693666 -6.36601332 2.2229777 0 2 C0 1.34 0 0.68 0 0 Z M2 2 C3 4 3 4 3 4 Z " fill="#F1844F" transform="translate(222,2)"/>
<path d="M0 0 C7.48 2.38 7.48 2.38 10 4 C10.268125 4.680625 10.53625 5.36125 10.8125 6.0625 C11.204375 6.701875 11.59625 7.34125 12 8 C15.56206661 8.81870185 15.56206661 8.81870185 19 9 C18.67 9.66 18.34 10.32 18 11 C17.34 11 16.68 11 16 11 C16.474375 11.4125 16.94875 11.825 17.4375 12.25 C19.16266518 14.182185 19.56584875 15.48192275 20 18 C13.75364382 15.85839217 9.42823819 11.80780146 5 7 C5 6.34 5 5.68 5 5 C4.360625 4.731875 3.72125 4.46375 3.0625 4.1875 C1 3 1 3 0 0 Z " fill="#5487EE" transform="translate(21,242)"/>
<path d="M0 0 C0.495 1.485 0.495 1.485 1 3 C-1.84605502 8.29344086 -6.18611016 12.49898921 -11 16 C-11.66 16 -12.32 16 -13 16 C-13.226875 16.598125 -13.45375 17.19625 -13.6875 17.8125 C-16.79184257 22.98640429 -24.39710893 25.36661481 -30 27 C-30.99 26.67 -31.98 26.34 -33 26 C-32.26136719 25.6596875 -31.52273438 25.319375 -30.76171875 24.96875 C-19.25476865 19.47114741 -5.95404329 11.90808657 0 0 Z " fill="#F59843" transform="translate(298,183)"/>
<path d="M0 0 C-6.25562715 4.20923848 -12.24711863 8 -20 8 C-20 8.66 -20 9.32 -20 10 C-23 12 -23 12 -25.1875 11.625 C-25.785625 11.41875 -26.38375 11.2125 -27 11 C-9.0233463 -3.0077821 -9.0233463 -3.0077821 0 0 Z " fill="#5CD7A8" transform="translate(57,48)"/>
<path d="M0 0 C3.08105083 4.62157624 2.38212552 9.30887214 2.375 14.75 C2.37483887 15.87349854 2.37467773 16.99699707 2.37451172 18.15454102 C2.09104259 38.90895741 2.09104259 38.90895741 -4 45 C-3.67 40.38 -3.34 35.76 -3 31 C-2.01 31 -1.02 31 0 31 C0 20.77 0 10.54 0 0 Z " fill="#F2C2AD" transform="translate(355,178)"/>
<path d="M0 0 C0.66 0.99 1.32 1.98 2 3 C4.30581479 4.01627147 4.30581479 4.01627147 6.9375 4.6875 C7.81277344 4.93886719 8.68804687 5.19023437 9.58984375 5.44921875 C12.07538598 6.11139095 12.07538598 6.11139095 15 6 C15.66 6 16.32 6 17 6 C16.67 6.94875 16.34 7.8975 16 8.875 C14.89840809 11.77062452 14.89840809 11.77062452 15 14 C15.66 14 16.32 14 17 14 C17.33 16.31 17.66 18.62 18 21 C17.34 21 16.68 21 16 21 C15.896875 20.236875 15.79375 19.47375 15.6875 18.6875 C14.93200845 15.73421485 14.13007477 15.04132166 12 13 C11.896875 12.319375 11.79375 11.63875 11.6875 10.9375 C11.460625 10.298125 11.23375 9.65875 11 9 C8.00384054 7.6954344 8.00384054 7.6954344 5 7 C5 6.34 5 5.68 5 5 C3.35 5 1.7 5 0 5 C-0.5625 3.0625 -0.5625 3.0625 -1 1 C-0.67 0.67 -0.34 0.34 0 0 Z " fill="#4E7EF1" transform="translate(49,260)"/>
<path d="M0 0 C0.99 0.495 0.99 0.495 2 1 C1.01 1.495 1.01 1.495 0 2 C0 1.34 0 0.68 0 0 Z M-2 2 C0 3 0 3 0 3 Z M-3 3 C-2.4465236 5.07553648 -2 6.84365964 -2 9 C-4.31 8.67 -6.62 8.34 -9 8 C-9.33 9.98 -9.66 11.96 -10 14 C-11.32 14.33 -12.64 14.66 -14 15 C-14.33 14.34 -14.66 13.68 -15 13 C-13.75 10.625 -13.75 10.625 -12 8 C-11.566875 7.2575 -11.13375 6.515 -10.6875 5.75 C-8.34901179 3.32490112 -6.27626382 3.29122345 -3 3 Z " fill="#70DBB3" transform="translate(37,56)"/>
<path d="M0 0 C0.99 0.33 1.98 0.66 3 1 C3 1.66 3 2.32 3 3 C3.99 3 4.98 3 6 3 C8.08386889 8.27913453 8.57910004 13.39538469 9 19 C7.046875 18.3515625 7.046875 18.3515625 5 17 C4.390625 14.3984375 4.390625 14.3984375 4.25 11.375 C4.19328125 10.37210938 4.1365625 9.36921875 4.078125 8.3359375 C4.05234375 7.56507812 4.0265625 6.79421875 4 6 C1.525 5.01 1.525 5.01 -1 4 C-0.67 2.68 -0.34 1.36 0 0 Z " fill="#5FD9A0" transform="translate(172,28)"/>
<path d="M0 0 C1.03253906 0.00676758 1.03253906 0.00676758 2.0859375 0.01367188 C3.76566335 0.02533664 5.44534375 0.04326729 7.125 0.0625 C7.125 0.7225 7.125 1.3825 7.125 2.0625 C0.525 2.0625 -6.075 2.0625 -12.875 2.0625 C-12.875 2.7225 -12.875 3.3825 -12.875 4.0625 C-14.8108351 4.42565666 -16.74875248 4.77772731 -18.6875 5.125 C-19.76644531 5.32222656 -20.84539062 5.51945313 -21.95703125 5.72265625 C-24.875 6.0625 -24.875 6.0625 -27.875 5.0625 C-25.66790017 4.41246375 -23.45926108 3.76765255 -21.25 3.125 C-20.02023438 2.76535156 -18.79046875 2.40570313 -17.5234375 2.03515625 C-11.59785866 0.45542485 -6.11849482 -0.07707406 0 0 Z " fill="#BFECD5" transform="translate(128.875,-0.0625)"/>
<path d="M0 0 C0.66 0.33 1.32 0.66 2 1 C1.97679687 2.03640625 1.95359375 3.0728125 1.9296875 4.140625 C1.91092333 5.51040944 1.89272382 6.8802017 1.875 8.25 C1.85824219 8.93191406 1.84148438 9.61382812 1.82421875 10.31640625 C1.78712477 14.13708586 2.07943999 16.70329069 4 20 C4 23 4 23 3 26 C3.66 26 4.32 26 5 26 C4.67 27.32 4.34 28.64 4 30 C-2.25099346 20.62350981 -1.58677204 10.71071127 0 0 Z " fill="#5783DE" transform="translate(5,184)"/>
<path d="M0 0 C1.32 0 2.64 0 4 0 C2.71480435 2.86697492 1.42870746 4.97607712 -1 7 C-1.66 7 -2.32 7 -3 7 C-3.2475 7.61875 -3.495 8.2375 -3.75 8.875 C-5.20628639 11.35068687 -6.37812506 11.95125002 -9 13 C-9 13.66 -9 14.32 -9 15 C-10.65 15.66 -12.3 16.32 -14 17 C-13.319375 15.88625 -13.319375 15.88625 -12.625 14.75 C-11.31359204 12.53069422 -10.11719197 10.32032178 -9 8 C-7.68 8 -6.36 8 -5 8 C-5 7.34 -5 6.68 -5 6 C-4.01 6 -3.02 6 -2 6 C-2 5.01 -2 4.02 -2 3 C-1.34 3 -0.68 3 0 3 C0 2.01 0 1.02 0 0 Z " fill="#EFC39A" transform="translate(336,242)"/>
<path d="M0 0 C1.27725748 3.6174675 0.6833937 5.97181646 -0.3125 9.625 C-2.39195137 17.99049931 -3.18272409 26.43302544 -4 35 C-4.33 35 -4.66 35 -5 35 C-5.39849485 22.67617792 -4.85274825 11.56220017 0 0 Z " fill="#B4CAEF" transform="translate(8,167)"/>
<path d="M0 0 C4.32734237 3.00550912 6.16303125 5.8202548 8.375 10.5625 C11.04496101 16.05718184 11.04496101 16.05718184 15.9375 19.3125 C16.948125 19.539375 17.95875 19.76625 19 20 C19 20.33 19 20.66 19 21 C11.11735941 20.24205379 11.11735941 20.24205379 8 17 C8 16.01 8 15.02 8 14 C7.01 13.67 6.02 13.34 5 13 C5 11.02 5 9.04 5 7 C4.34 7 3.68 7 3 7 C0 2.61538462 0 2.61538462 0 0 Z " fill="#EFAE98" transform="translate(293,28)"/>
<path d="M0 0 C0.66 0.33 1.32 0.66 2 1 C1.360625 1.5775 0.72125 2.155 0.0625 2.75 C-2.80887095 5.88240467 -3 7.83792635 -3 12 C-4.98 12.66 -6.96 13.32 -9 14 C-9 14.66 -9 15.32 -9 16 C-9.66 16 -10.32 16 -11 16 C-11 16.66 -11 17.32 -11 18 C-11.66 18 -12.32 18 -13 18 C-10.50731909 12.8228935 -7.68937423 8.44570612 -3.8125 4.1875 C-3.09707031 3.39730469 -2.38164062 2.60710938 -1.64453125 1.79296875 C-1.10183594 1.20128906 -0.55914062 0.60960937 0 0 Z " fill="#9AE9CB" transform="translate(26,61)"/>
<path d="M0 0 C3.98671063 1.36687222 6.88494633 3.15195093 10 6 C10 6.66 10 7.32 10 8 C10.66 8 11.32 8 12 8 C13.625 9.5 13.625 9.5 15 11 C14.67 11.66 14.34 12.32 14 13 C12.0625 12.6875 12.0625 12.6875 10 12 C9.67 11.01 9.34 10.02 9 9 C7.35 8.67 5.7 8.34 4 8 C3.67 7.01 3.34 6.02 3 5 C2.34 5 1.68 5 1 5 C0.67 3.35 0.34 1.7 0 0 Z " fill="#F2B09C" transform="translate(278,15)"/>
<path d="M0 0 C0.66 0.33 1.32 0.66 2 1 C2 1.99 2 2.98 2 4 C2.66 4 3.32 4 4 4 C4 4.99 4 5.98 4 7 C3.34 7.66 2.68 8.32 2 9 C1.67 9.845625 1.34 10.69125 1 11.5625 C0 14 0 14 -2 15 C-2.40729228 17.32156597 -2.74438677 19.6568787 -3 22 C-4.60726124 17.90684138 -3.4708647 14.02270499 -2.625 9.875 C-2.41617187 8.78251953 -2.41617187 8.78251953 -2.203125 7.66796875 C-1.15223689 2.30447378 -1.15223689 2.30447378 0 0 Z " fill="#5B8BF1" transform="translate(10,162)"/>
<path d="M0 0 C-0.39515816 5.13705613 -2.28794189 8.56693167 -4.94140625 12.8515625 C-6.29465797 15.19883445 -6.29465797 15.19883445 -6 19 C-6.66 19 -7.32 19 -8 19 C-8.33 16.69 -8.66 14.38 -9 12 C-8.01 11.34 -7.02 10.68 -6 10 C-5.278678 7.84494418 -5.278678 7.84494418 -4.9375 5.4375 C-4.52734375 2.99609375 -4.52734375 2.99609375 -4 1 C-2 0 -2 0 0 0 Z " fill="#EFA293" transform="translate(357,146)"/>
<path d="M0 0 C0.54269531 0.26167969 1.08539063 0.52335937 1.64453125 0.79296875 C1.02578125 1.04046875 0.40703125 1.28796875 -0.23046875 1.54296875 C-2.49293369 2.61440604 -2.49293369 2.61440604 -3.35546875 4.79296875 C-4.61088432 7.30379989 -5.85610363 7.66422321 -8.35546875 8.79296875 C-8.68546875 9.45296875 -9.01546875 10.11296875 -9.35546875 10.79296875 C-10.01546875 10.46296875 -10.67546875 10.13296875 -11.35546875 9.79296875 C-11.35546875 10.78296875 -11.35546875 11.77296875 -11.35546875 12.79296875 C-12.34546875 13.12296875 -13.33546875 13.45296875 -14.35546875 13.79296875 C-13.91131871 9.38245554 -11.1914175 7.36202913 -8.04296875 4.48046875 C-7.31303711 3.77954102 -7.31303711 3.77954102 -6.56835938 3.06445312 C-2.92317876 -0.25692948 -2.92317876 -0.25692948 0 0 Z " fill="#5DDEA2" transform="translate(83.35546875,16.20703125)"/>
<path d="M0 0 C0.33 0.66 0.66 1.32 1 2 C1.99 2.33 2.98 2.66 4 3 C4 4.65 4 6.3 4 8 C4.66 8.33 5.32 8.66 6 9 C9 14.42307692 9 14.42307692 9 17 C10.32 17.33 11.64 17.66 13 18 C12.34 19.32 11.68 20.64 11 22 C9.53623754 19.77423775 8.07892459 17.54467564 6.625 15.3125 C6.2125 14.68666016 5.8 14.06082031 5.375 13.41601562 C0 5.13678175 0 5.13678175 0 0 Z " fill="#9BB5EC" transform="translate(61,273)"/>
<path d="M0 0 C7.13664963 1.34653767 12.75719474 4.3507131 19 8 C17.0625 8.5625 17.0625 8.5625 15 9 C14.67 8.67 14.34 8.34 14 8 C13.030625 8.04125 12.06125 8.0825 11.0625 8.125 C10.051875 8.08375 9.04125 8.0425 8 8 C7.34 7.01 6.68 6.02 6 5 C5.34 4.855625 4.68 4.71125 4 4.5625 C2 4 2 4 0.75 1.9375 C0.5025 1.298125 0.255 0.65875 0 0 Z " fill="#FDB254" transform="translate(259,97)"/>
<path d="M0 0 C0.98291016 0.00322266 1.96582031 0.00644531 2.97851562 0.00976562 C4.51475586 0.02233398 4.51475586 0.02233398 6.08203125 0.03515625 C7.63567383 0.04192383 7.63567383 0.04192383 9.22070312 0.04882812 C11.77870391 0.06061615 14.33658858 0.0770711 16.89453125 0.09765625 C15.57453125 0.42765625 14.25453125 0.75765625 12.89453125 1.09765625 C12.56453125 2.41765625 12.23453125 3.73765625 11.89453125 5.09765625 C11.23453125 5.09765625 10.57453125 5.09765625 9.89453125 5.09765625 C9.89453125 4.10765625 9.89453125 3.11765625 9.89453125 2.09765625 C8.80140625 2.09765625 7.70828125 2.09765625 6.58203125 2.09765625 C4.35286458 2.09765625 2.12369792 2.09765625 -0.10546875 2.09765625 C-0.93046875 2.42765625 -1.75546875 2.75765625 -2.60546875 3.09765625 C-5.10546875 4.09765625 -5.10546875 4.09765625 -8.10546875 4.09765625 C-8.10546875 3.10765625 -8.10546875 2.11765625 -8.10546875 1.09765625 C-5.10530963 0.09760321 -3.13123119 -0.0180996 0 0 Z " fill="#53E099" transform="translate(121.10546875,2.90234375)"/>
<path d="M0 0 C-4.71451004 4.71451004 -11.85555005 4.18033819 -18.125 4.1875 C-19.1461792 4.1887085 -19.1461792 4.1887085 -20.18798828 4.18994141 C-24.21953642 4.14581111 -28.04411402 3.77022702 -32 3 C-32 2.67 -32 2.34 -32 2 C-30.9378125 2.02320313 -29.875625 2.04640625 -28.78125 2.0703125 C-20.05554675 2.3828709 -20.05554675 2.3828709 -11.5 1 C-7.42843885 -0.16330319 -4.21034313 -0.1503694 0 0 Z " fill="#B3C8F0" transform="translate(143,318)"/>
<path d="M0 0 C1.258125 0.12375 2.51625 0.2475 3.8125 0.375 C4.87404297 0.47941406 4.87404297 0.47941406 5.95703125 0.5859375 C8 1 8 1 11 3 C12.65549531 3.38499891 14.3222433 3.72793135 16 4 C16 4.66 16 5.32 16 6 C21.28 6.33 26.56 6.66 32 7 C32 7.33 32 7.66 32 8 C20.08476602 8.45632811 10.84795877 5.88344536 0 1 C0 0.67 0 0.34 0 0 Z " fill="#F4E3B1" transform="translate(208,315)"/>
<path d="M0 0 C1.2065625 0.0309375 1.2065625 0.0309375 2.4375 0.0625 C2.7675 1.0525 3.0975 2.0425 3.4375 3.0625 C4.0975 3.3925 4.7575 3.7225 5.4375 4.0625 C5.0625 6.5 5.0625 6.5 4.4375 9.0625 C3.4475 9.5575 3.4475 9.5575 2.4375 10.0625 C-0.50795056 7.62930171 -0.88536717 5.73836393 -1.5625 2.0625 C-2.2225 1.7325 -2.8825 1.4025 -3.5625 1.0625 C-2.5625 0.0625 -2.5625 0.0625 0 0 Z " fill="#4A7EF8" transform="translate(69.5625,280.9375)"/>
<path d="M0 0 C0.99 0.33 1.98 0.66 3 1 C1.8553125 2.0828125 1.8553125 2.0828125 0.6875 3.1875 C-2.03207252 5.81409241 -2.03207252 5.81409241 -3.5625 8.6875 C-5.14018753 11.22551907 -6.24850696 11.95633023 -9 13 C-9 13.66 -9 14.32 -9 15 C-9.99 14.67 -10.98 14.34 -12 14 C-8.95106319 9.55726351 -5.93251313 5.71994485 -2 2 C-1.34 1.34 -0.68 0.68 0 0 Z " fill="#F88B48" transform="translate(202,10)"/>
<path d="M0 0 C1.03125 0.165 2.0625 0.33 3.125 0.5 C10.4124247 1.41419306 18.91180424 2.21067491 26 0 C26 0.66 26 1.32 26 2 C17.38009026 4.50761011 9.82580614 4.28375362 1 3 C0.67 2.01 0.34 1.02 0 0 Z " fill="#5383E4" transform="translate(109,317)"/>
<path d="M0 0 C8.00180661 -0.54249536 14.46595398 1.39161312 22 4 C22 4.33 22 4.66 22 5 C13.99819339 5.54249536 7.53404602 3.60838688 0 1 C0 0.67 0 0.34 0 0 Z " fill="#EDB091" transform="translate(241,2)"/>
<path d="M0 0 C0.66 0 1.32 0 2 0 C2.66 0.99 3.32 1.98 4 3 C5.175625 3.4640625 5.175625 3.4640625 6.375 3.9375 C9.36740863 5.14871302 10.81162115 6.66572922 13 9 C13.99 9.66 14.98 10.32 16 11 C16 11.99 16 12.98 16 14 C10.07243794 11.56817967 5.41663172 7.61189334 1 3 C0.67 2.01 0.34 1.02 0 0 Z " fill="#A1BBEF" transform="translate(77,299)"/>
<path d="M0 0 C2.31 0.33 4.62 0.66 7 1 C7.33 2.32 7.66 3.64 8 5 C9.65 5 11.3 5 13 5 C13 5.66 13 6.32 13 7 C13.763125 6.938125 14.52625 6.87625 15.3125 6.8125 C18 7 18 7 19.8125 8.5 C20.204375 8.995 20.59625 9.49 21 10 C20.01 11.485 20.01 11.485 19 13 C19 12.01 19 11.02 19 10 C18.45472656 9.84144531 17.90945312 9.68289063 17.34765625 9.51953125 C11.51488577 7.71486209 6.0783982 5.43472021 1 2 C0.67 1.34 0.34 0.68 0 0 Z " fill="#9CB7EC" transform="translate(41,260)"/>
<path d="M0 0 C0.33 0.66 0.66 1.32 1 2 C-1.11997834 3.19733988 -3.24513676 4.38298713 -5.375 5.5625 C-5.97828125 5.90474609 -6.5815625 6.24699219 -7.203125 6.59960938 C-8.76978241 7.46127095 -10.38290862 8.23718183 -12 9 C-12.66 8.67 -13.32 8.34 -14 8 C-13.67 7.01 -13.34 6.02 -13 5 C-12.01 5 -11.02 5 -10 5 C-10 4.34 -10 3.68 -10 3 C-5.05 1.515 -5.05 1.515 0 0 Z " fill="#8AACEC" transform="translate(158,309)"/>
<path d="M0 0 C1 3 1 3 -0.14453125 5.48046875 C-0.69496094 6.37378906 -1.24539062 7.26710938 -1.8125 8.1875 C-2.35519531 9.08855469 -2.89789063 9.98960937 -3.45703125 10.91796875 C-3.96621094 11.60503906 -4.47539062 12.29210937 -5 13 C-5.66 13 -6.32 13 -7 13 C-7.33 13.99 -7.66 14.98 -8 16 C-9.53445094 12.93109813 -8.54984289 10.29905734 -8 7 C-7.34 7 -6.68 7 -6 7 C-6 6.34 -6 5.68 -6 5 C-5.34 5.33 -4.68 5.66 -4 6 C-4 6.66 -4 7.32 -4 8 C-3.34 6.02 -2.68 4.04 -2 2 C-1.34 2 -0.68 2 0 2 C0 1.34 0 0.68 0 0 Z " fill="#9AB7F1" transform="translate(175,287)"/>
<path d="M0 0 C0.66 0 1.32 0 2 0 C2 1.98 2 3.96 2 6 C1.34 6 0.68 6 0 6 C0.020625 6.94875 0.04125 7.8975 0.0625 8.875 C0 12 0 12 -1 14 C-1.66 14 -2.32 14 -3 14 C-3.66 11.36 -4.32 8.72 -5 6 C-4.360625 5.7525 -3.72125 5.505 -3.0625 5.25 C-0.81258459 4.18437567 -0.81258459 4.18437567 -0.25 1.875 C-0.1675 1.25625 -0.085 0.6375 0 0 Z " fill="#4C80EF" transform="translate(176,275)"/>
<path d="M0 0 C0.66 0.33 1.32 0.66 2 1 C2 3.97 2 6.94 2 10 C1.01 10.33 0.02 10.66 -1 11 C-2.20882096 13.00016466 -2.20882096 13.00016466 -3 15 C-3.3152595 9.01006953 -2.68219822 5.36439644 0 0 Z " fill="#FA9147" transform="translate(185,35)"/>
<path d="M0 0 C3.55702392 1.9761244 6.13747568 4.13747568 9 7 C9.99 7.33 10.98 7.66 12 8 C11.34 9.32 10.68 10.64 10 12 C10 11.34 10 10.68 10 10 C9.443125 9.938125 8.88625 9.87625 8.3125 9.8125 C4.972841 8.6391063 3.28499253 6.65553186 1 4 C0.1875 1.6875 0.1875 1.6875 0 0 Z " fill="#70D7C2" transform="translate(7,154)"/>
<path d="M0 0 C4.01018103 1.38952413 6.90032723 3.26698294 10.1875 5.9375 C11.04730469 6.62714844 11.90710938 7.31679688 12.79296875 8.02734375 C15 10 15 10 17 13 C15.35 12.67 13.7 12.34 12 12 C11.67 11.01 11.34 10.02 11 9 C7.43082843 6.77768563 3.79039298 4.81938863 0 3 C0 2.01 0 1.02 0 0 Z " fill="#F3BFB1" transform="translate(321,53)"/>
<path d="M0 0 C3.14027363 0.33645789 4.05098295 1.05236086 6.3125 3.375 C6.869375 4.24125 7.42625 5.1075 8 6 C7.67 6.99 7.34 7.98 7 9 C6.2575 8.484375 5.515 7.96875 4.75 7.4375 C2.16784546 5.75057228 2.16784546 5.75057228 -0.3125 6.3125 C-0.869375 6.539375 -1.42625 6.76625 -2 7 C-1.67 6.01 -1.34 5.02 -1 4 C-0.65772583 2.66893378 -0.32248257 1.33599921 0 0 Z " fill="#F26C52" transform="translate(334,65)"/>
<path d="M0 0 C3.93243082 5.89864623 5.44895473 11.96637582 5 19 C1.06756918 13.10135377 -0.44895473 7.03362418 0 0 Z " fill="#A5C0EA" transform="translate(4,202)"/>
<path d="M0 0 C4.81790352 3.58541658 8.52958434 7.43234681 11 13 C10.67 13.66 10.34 14.32 10 15 C9.34 14.67 8.68 14.34 8 14 C8 13.34 8 12.68 8 12 C7.34 12 6.68 12 6 12 C4 8 2 4 0 0 Z " fill="#F1BBAC" transform="translate(338,66)"/>
<path d="M0 0 C3.48670834 1.1094072 6.77484237 2.26337666 10 4 C9.67 5.65 9.34 7.3 9 9 C7.68 8.34 6.36 7.68 5 7 C5 6.34 5 5.68 5 5 C4.360625 4.731875 3.72125 4.46375 3.0625 4.1875 C1 3 1 3 0 0 Z " fill="#82A8EE" transform="translate(21,242)"/>
<path d="M0 0 C0.66 0 1.32 0 2 0 C2 0.66 2 1.32 2 2 C2.53625 2.268125 3.0725 2.53625 3.625 2.8125 C4.40875 3.204375 5.1925 3.59625 6 4 C7.051875 4.474375 8.10375 4.94875 9.1875 5.4375 C12 7 12 7 13 10 C7.79329712 9.68444225 4.42269244 6.69871603 1 3 C0.67 2.01 0.34 1.02 0 0 Z " fill="#4FC6C7" transform="translate(15,164)"/>
<path d="M0 0 C7.52422907 -0.37004405 7.52422907 -0.37004405 9.6875 1.3125 C10.120625 1.869375 10.55375 2.42625 11 3 C12.64605826 4.03357147 14.30963442 5.04060332 16 6 C14 7 14 7 10.99609375 6.07421875 C9.82175781 5.61660156 8.64742187 5.15898437 7.4375 4.6875 C5.67212891 4.01267578 5.67212891 4.01267578 3.87109375 3.32421875 C1 2 1 2 0 0 Z " fill="#90B0EA" transform="translate(94,313)"/>
<path d="M0 0 C1.65 0 3.3 0 5 0 C5 0.66 5 1.32 5 2 C5.99 2.33 6.98 2.66 8 3 C8.6875 5.0625 8.6875 5.0625 9 7 C7.35 6.67 5.7 6.34 4 6 C3.67 5.01 3.34 4.02 3 3 C2.34 3 1.68 3 1 3 C0.67 2.01 0.34 1.02 0 0 Z " fill="#71DFA9" transform="translate(154,8)"/>
<path d="M0 0 C5.63308675 1.43823491 10.73677223 3.54144009 16 6 C16 6.99 16 7.98 16 9 C12.34061828 7.56835889 8.76011932 6.01065704 5.1875 4.375 C4.21167969 3.92898437 3.23585938 3.48296875 2.23046875 3.0234375 C1.49441406 2.68570313 0.75835937 2.34796875 0 2 C0 1.34 0 0.68 0 0 Z " fill="#F68542" transform="translate(262,96)"/>
<path d="M0 0 C0 2 0 2 -1.0625 3.5 C-3.77369509 5.59898975 -6.7249104 6.06426011 -10 7 C-11.90170054 8.47761659 -11.90170054 8.47761659 -13 10 C-13.66 9.67 -14.32 9.34 -15 9 C-5.15533981 0 -5.15533981 0 0 0 Z " fill="#AFEBD0" transform="translate(90,11)"/>
<path d="M0 0 C3.58176428 1.32657936 5.42259675 3.51406958 7.76171875 6.46875 C9.37011646 8.45768345 11.15913551 10.22731568 13 12 C7.99088137 10.74772034 5.98782244 9.16160983 3 5 C2.34 4.67 1.68 4.34 1 4 C0.375 1.9375 0.375 1.9375 0 0 Z " fill="#3E90DD" transform="translate(11,162)"/>
<path d="M0 0 C0.66 0.33 1.32 0.66 2 1 C-5.59821429 10.24107143 -5.59821429 10.24107143 -10 11 C-10 10.34 -10 9.68 -10 9 C-9.34 9 -8.68 9 -8 9 C-7.79375 8.443125 -7.5875 7.88625 -7.375 7.3125 C-5.44999226 4.07498698 -2.96149098 2.31768859 0 0 Z " fill="#F3C7A9" transform="translate(200,10)"/>
<path d="M0 0 C2.03833424 1.2739589 4.03852126 2.61061923 6 4 C6 4.66 6 5.32 6 6 C6.66 6 7.32 6 8 6 C8.66 7.32 9.32 8.64 10 10 C7 10 7 10 4.9375 8 C4.298125 7.34 3.65875 6.68 3 6 C2.34 6 1.68 6 1 6 C0.67 4.02 0.34 2.04 0 0 Z " fill="#A9ECCD" transform="translate(162,11)"/>
<path d="M0 0 C0.66 0 1.32 0 2 0 C2.33 2.97 2.66 5.94 3 9 C0.525 8.01 0.525 8.01 -2 7 C-1.125 2.25 -1.125 2.25 0 0 Z " fill="#F26950" transform="translate(352,90)"/>
<path d="M0 0 C0.928125 0.33 1.85625 0.66 2.8125 1 C5.92029291 2.14967004 5.92029291 2.14967004 9 2 C9.66 3.98 10.32 5.96 11 8 C9.0625 7.6875 9.0625 7.6875 7 7 C6.67 6.01 6.34 5.02 6 4 C4.66923011 3.65657551 3.33568021 3.32380126 2 3 C1.34 2.01 0.68 1.02 0 0 Z " fill="#6A91EB" transform="translate(73,295)"/>
<path d="M0 0 C0.99 0.33 1.98 0.66 3 1 C0.48169253 4.12270126 -0.7261549 4.94523098 -4.75 5.75 C-6.35875 5.87375 -6.35875 5.87375 -8 6 C-7.67 5.01 -7.34 4.02 -7 3 C-3.535 2.505 -3.535 2.505 0 2 C0 1.34 0 0.68 0 0 Z " fill="#F0C08A" transform="translate(319,258)"/>
<path d="M0 0 C2.81484045 2.81484045 2.62757042 5.2166247 3.125 9.125 C3.29257813 10.40632813 3.46015625 11.68765625 3.6328125 13.0078125 C3.81457031 14.48894531 3.81457031 14.48894531 4 16 C3.01 15.34 2.02 14.68 1 14 C0.48828125 10.7421875 0.48828125 10.7421875 0.3125 6.875 C0.24675781 5.59367187 0.18101562 4.31234375 0.11328125 2.9921875 C0.07589844 2.00476562 0.03851563 1.01734375 0 0 Z " fill="#B2E7CA" transform="translate(177,31)"/>
<path d="M0 0 C1.59036701 3.18073402 0.78365299 5.62426403 0 9 C-2 10.25 -2 10.25 -4 11 C-4.33 11.99 -4.66 12.98 -5 14 C-5.33 13.34 -5.66 12.68 -6 12 C-4.78515625 9.1796875 -4.78515625 9.1796875 -3.0625 5.875 C-2.49660156 4.77929688 -1.93070313 3.68359375 -1.34765625 2.5546875 C-0.90292969 1.71164063 -0.45820313 0.86859375 0 0 Z " fill="#F0BF98" transform="translate(189,21)"/>
<path d="M0 0 C0.99 0 1.98 0 3 0 C3 0.66 3 1.32 3 2 C1.03125 3.5078125 1.03125 3.5078125 -1.5 5.125 C-2.3353125 5.66382813 -3.170625 6.20265625 -4.03125 6.7578125 C-4.6809375 7.16773438 -5.330625 7.57765625 -6 8 C-6.33 7.01 -6.66 6.02 -7 5 C-6.01 5 -5.02 5 -4 5 C-4 4.01 -4 3.02 -4 2 C-2.68 2 -1.36 2 0 2 C0 1.34 0 0.68 0 0 Z " fill="#F2DBA9" transform="translate(275,305)"/>
<path d="M0 0 C-2.51830747 3.12270126 -3.7261549 3.94523098 -7.75 4.75 C-9.35875 4.87375 -9.35875 4.87375 -11 5 C-7.7 0.23333333 -7.7 0.23333333 -4.375 -0.875 C-2 -1 -2 -1 0 0 Z " fill="#5381E9" transform="translate(162,306)"/>
<path d="M0 0 C1.485 0.99 1.485 0.99 3 2 C2.814375 2.61875 2.62875 3.2375 2.4375 3.875 C1.76313824 6.04160178 1.76313824 6.04160178 3 8 C2.67 8.66 2.34 9.32 2 10 C2.66 10 3.32 10 4 10 C3.67 11.32 3.34 12.64 3 14 C-0.26566506 9.10150241 -0.09311493 5.68001091 0 0 Z " fill="#4880F4" transform="translate(6,200)"/>
<path d="M0 0 C3.87302138 1.14430177 7.00263439 2.23320098 10 5 C10 5.66 10 6.32 10 7 C8.68 7 7.36 7 6 7 C6 6.34 6 5.68 6 5 C5.34 5 4.68 5 4 5 C4 4.34 4 3.68 4 3 C2.68 2.67 1.36 2.34 0 2 C0 1.34 0 0.68 0 0 Z " fill="#ED6F57" transform="translate(323,57)"/>
<path d="M0 0 C2.375 0.625 2.375 0.625 5 2 C6.3125 5.125 6.3125 5.125 7 8 C6.01 8 5.02 8 4 8 C3.67 7.01 3.34 6.02 3 5 C2.34 5 1.68 5 1 5 C0.67 3.35 0.34 1.7 0 0 Z " fill="#F29879" transform="translate(278,15)"/>
<path d="M0 0 C0.99 0.33 1.98 0.66 3 1 C1.50902342 4.7952131 -0.75700849 6.61042731 -4 9 C-4 7.35 -4 5.7 -4 4 C-2.68 4 -1.36 4 0 4 C0 2.68 0 1.36 0 0 Z " fill="#F5D69E" transform="translate(283,296)"/>
<path d="M0 0 C0.66 0.33 1.32 0.66 2 1 C2 1.66 2 2.32 2 3 C1.34 3 0.68 3 0 3 C-0.4640625 4.175625 -0.4640625 4.175625 -0.9375 5.375 C-2 8 -2 8 -3 10 C-3.66 10 -4.32 10 -5 10 C-4.300926 6.22500037 -2.74803773 2.74803773 0 0 Z " fill="#FCB44A" transform="translate(292,281)"/>
<path d="M0 0 C1 3 1 3 0.00390625 5.26171875 C-0.47175781 6.06222656 -0.94742187 6.86273438 -1.4375 7.6875 C-1.91058594 8.49574219 -2.38367188 9.30398437 -2.87109375 10.13671875 C-3.24363281 10.75160156 -3.61617188 11.36648437 -4 12 C-4.33 12 -4.66 12 -5 12 C-5 10.02 -5 8.04 -5 6 C-4.34 6 -3.68 6 -3 6 C-2.87625 5.195625 -2.7525 4.39125 -2.625 3.5625 C-2.41875 2.716875 -2.2125 1.87125 -2 1 C-1.34 0.67 -0.68 0.34 0 0 Z " fill="#EFBB97" transform="translate(350,223)"/>
<path d="M0 0 C2.26171875 -0.25 2.26171875 -0.25 5 0 C7.01953125 1.75 7.01953125 1.75 8.8125 4 C9.41707031 4.7425 10.02164062 5.485 10.64453125 6.25 C11.09183594 6.8275 11.53914063 7.405 12 8 C8.21516391 8 7.22592069 6.89417485 4.3125 4.5625 C3.50425781 3.92441406 2.69601562 3.28632812 1.86328125 2.62890625 C1.24839844 2.09136719 0.63351562 1.55382812 0 1 C0 0.67 0 0.34 0 0 Z " fill="#F37D41" transform="translate(279,105)"/>
<path d="M0 0 C0 0.66 0 1.32 0 2 C-0.99 2 -1.98 2 -3 2 C-3 2.99 -3 3.98 -3 5 C-6 7 -6 7 -8.1875 6.625 C-8.785625 6.41875 -9.38375 6.2125 -10 6 C-8.71283353 4.99421411 -7.42011342 3.99553202 -6.125 3 C-5.40570313 2.443125 -4.68640625 1.88625 -3.9453125 1.3125 C-2 0 -2 0 0 0 Z " fill="#9BE8CB" transform="translate(40,53)"/>
<path d="M0 0 C1.258125 0.12375 2.51625 0.2475 3.8125 0.375 C4.87404297 0.47941406 4.87404297 0.47941406 5.95703125 0.5859375 C8 1 8 1 11 3 C11 3.66 11 4.32 11 5 C10.319375 4.690625 9.63875 4.38125 8.9375 4.0625 C5.63034088 2.86629351 2.48454122 2.40994603 -1 2 C-0.67 1.34 -0.34 0.68 0 0 Z " fill="#F47D4B" transform="translate(268,13)"/>
<path d="M0 0 C2.9375 0.8125 2.9375 0.8125 6 2 C6.33 2.99 6.66 3.98 7 5 C7.66 5.66 8.32 6.32 9 7 C6.03 6.505 6.03 6.505 3 6 C3 5.34 3 4.68 3 4 C1.68 3.34 0.36 2.68 -1 2 C-0.67 1.34 -0.34 0.68 0 0 Z " fill="#507EED" transform="translate(91,307)"/>
<path d="M0 0 C3.10551666 3.10551666 3.81323934 4.89198233 5 9 C3.68 9 2.36 9 1 9 C0.67 6.03 0.34 3.06 0 0 Z " fill="#F0A596" transform="translate(349,81)"/>
<path d="M0 0 C0.99 0.495 0.99 0.495 2 1 C1.01 1.495 1.01 1.495 0 2 C0 1.34 0 0.68 0 0 Z M-2 2 C0 3 0 3 0 3 Z M-3 3 C-2.4465236 5.07553648 -2 6.84365964 -2 9 C-3.65 9 -5.3 9 -7 9 C-5.25 4.125 -5.25 4.125 -3 3 Z " fill="#49DDA5" transform="translate(37,56)"/>
<path d="M0 0 C1.65 1.65 3.3 3.3 5 5 C4.67 5.99 4.34 6.98 4 8 C3.4225 7.319375 2.845 6.63875 2.25 5.9375 C1.5075 5.298125 0.765 4.65875 0 4 C-2.21858253 4.13641377 -2.21858253 4.13641377 -4 5 C-3.34 4.67 -2.68 4.34 -2 4 C-2.33 3.01 -2.66 2.02 -3 1 C-2.01 0.67 -1.02 0.34 0 0 Z " fill="#F17752" transform="translate(291,27)"/>
<path d="M0 0 C0.66 0 1.32 0 2 0 C2.125 5.75 2.125 5.75 1 8 C0.01 8 -0.98 8 -2 8 C-2.20086443 4.28400809 -2.1519437 3.22791555 0 0 Z " fill="#5282F4" transform="translate(165,295)"/>
<path d="M0 0 C1.48484412 0.39595843 2.9628831 0.81750706 4.4375 1.25 C5.26121094 1.48203125 6.08492187 1.7140625 6.93359375 1.953125 C9 3 9 3 9.78515625 5.109375 C9.85605469 5.73328125 9.92695312 6.3571875 10 7 C5.56541027 5.6062718 3.12621626 3.39417765 0 0 Z " fill="#ABC2F2" transform="translate(31,253)"/>
<path d="M0 0 C5.37305699 -0.44041451 5.37305699 -0.44041451 8 0 C10 2.5 10 2.5 11 5 C7 5 7 5 5.5 3.625 C5.005 3.08875 4.51 2.5525 4 2 C1.90010348 0.82425289 1.90010348 0.82425289 0 0 Z " fill="#4592EC" transform="translate(67,185)"/>
<path d="M0 0 C-0.33 1.11375 -0.66 2.2275 -1 3.375 C-2.088643 6.69459717 -2.088643 6.69459717 -2 9 C-2.66 9 -3.32 9 -4 9 C-4.33 6.69 -4.66 4.38 -5 2 C-2 0 -2 0 0 0 Z " fill="#EE9C88" transform="translate(353,156)"/>
<path d="M0 0 C3.4375 0.8125 3.4375 0.8125 7 2 C7.33 2.99 7.66 3.98 8 5 C10.00016466 6.20882096 10.00016466 6.20882096 12 7 C9.69 6.67 7.38 6.34 5 6 C5 5.34 5 4.68 5 4 C3.35 3.67 1.7 3.34 0 3 C0 2.01 0 1.02 0 0 Z " fill="#47D1B3" transform="translate(76,99)"/>
<path d="M0 0 C2.33333333 2.33333333 4.66666667 4.66666667 7 7 C4.13822943 8.43088528 2.06624227 7.59991697 -1 7 C-0.67 4.69 -0.34 2.38 0 0 Z " fill="#F8714D" transform="translate(300,42)"/>
<path d="M0 0 C0.66 0.33 1.32 0.66 2 1 C1.21625 1.7425 0.4325 2.485 -0.375 3.25 C-2.56504531 5.54433318 -3.82731386 7.12158858 -5 10 C-5.99 10 -6.98 10 -8 10 C-8 9.34 -8 8.68 -8 8 C-7.34 8 -6.68 8 -6 8 C-5.7525 7.4225 -5.505 6.845 -5.25 6.25 C-3.83316683 3.6997003 -2.12372463 1.98214299 0 0 Z " fill="#C2F1DB" transform="translate(73,21)"/>
<path d="M0 0 C1.6490302 0.61651583 3.29415841 1.24347742 4.9375 1.875 C6.31228516 2.39707031 6.31228516 2.39707031 7.71484375 2.9296875 C10 4 10 4 11 6 C7.7 5.34 4.4 4.68 1 4 C0.67 2.68 0.34 1.36 0 0 Z " fill="#EFB79D" transform="translate(267,9)"/>
<path d="M0 0 C6.75 0.75 6.75 0.75 9 3 C2.25 4.125 2.25 4.125 0 3 C0 2.01 0 1.02 0 0 Z " fill="#57DE99" transform="translate(141,4)"/>
<path d="M0 0 C1.32 0.33 2.64 0.66 4 1 C4.33 2.65 4.66 4.3 5 6 C3.68 6.33 2.36 6.66 1 7 C0.67 4.69 0.34 2.38 0 0 Z " fill="#5885F0" transform="translate(14,227)"/>
<path d="M0 0 C0.75 1.625 0.75 1.625 1 4 C-0.9375 7.25 -0.9375 7.25 -3 10 C-3.99 9.67 -4.98 9.34 -6 9 C-1.6 1.6 -1.6 1.6 0 0 Z " fill="#F18C55" transform="translate(350,219)"/>
<path d="M0 0 C0 0.66 0 1.32 0 2 C-0.66 2 -1.32 2 -2 2 C-2 2.66 -2 3.32 -2 4 C-3.8125 5.6875 -3.8125 5.6875 -6 7 C-6.99 6.67 -7.98 6.34 -9 6 C-8.01 5.67 -7.02 5.34 -6 5 C-6 4.01 -6 3.02 -6 2 C-2.25 0 -2.25 0 0 0 Z " fill="#7DE2B0" transform="translate(96,8)"/>
<path d="M0 0 C0.6875 1.8125 0.6875 1.8125 1 4 C-0.4375 5.75 -0.4375 5.75 -2 7 C-2.33 5.68 -2.66 4.36 -3 3 C-3 3.66 -3 4.32 -3 5 C-3.66 5 -4.32 5 -5 5 C-4.67 3.68 -4.34 2.36 -4 1 C-2.68 0.67 -1.36 0.34 0 0 Z " fill="#5381EA" transform="translate(172,289)"/>
<path d="M0 0 C0 0.99 0 1.98 0 3 C-6.625 6.875 -6.625 6.875 -10 8 C-8.76736651 4.30209954 -7.79947549 4.0645154 -4.4375 2.3125 C-3.61121094 1.87550781 -2.78492188 1.43851563 -1.93359375 0.98828125 C-1.29550781 0.66214844 -0.65742188 0.33601562 0 0 Z " fill="#FEC457" transform="translate(280,199)"/>
<path d="M0 0 C2.44839588 3.67259383 4 6.54648201 4 11 C3.01 11 2.02 11 1 11 C0.67 7.37 0.34 3.74 0 0 Z " fill="#F3B9AF" transform="translate(354,90)"/>
<path d="M0 0 C1.24200301 2.48400602 0.98221651 3.82207636 0.6875 6.5625 C0.60886719 7.36816406 0.53023438 8.17382812 0.44921875 9.00390625 C0.30097656 9.66261719 0.15273437 10.32132813 0 11 C-0.99 11.495 -0.99 11.495 -2 12 C-2.17835515 7.45194365 -1.99785435 4.1205746 0 0 Z " fill="#5DD5A9" transform="translate(6,93)"/>
<path d="M0 0 C3.14737182 0.69941596 6.02588876 1.76078698 9 3 C6 5 6 5 3.8125 4.625 C3.214375 4.41875 2.61625 4.2125 2 4 C2 3.34 2 2.68 2 2 C1.34 2 0.68 2 0 2 C0 1.34 0 0.68 0 0 Z " fill="#F1A994" transform="translate(312,49)"/>
<path d="M0 0 C4.95 1.98 4.95 1.98 10 4 C9.67 4.99 9.34 5.98 9 7 C7.68127338 6.60348083 6.37002899 6.18201309 5.0625 5.75 C3.96615234 5.40195312 3.96615234 5.40195312 2.84765625 5.046875 C2.23792969 4.70140625 1.62820312 4.3559375 1 4 C0.67 2.68 0.34 1.36 0 0 Z " fill="#F4CC65" transform="translate(198,305)"/>
<path d="M0 0 C3 1 3 1 4 3 C4.039992 4.99960012 4.04346799 7.00047242 4 9 C1.18167487 7.59083743 0.97406539 5.92219617 0 3 C0 2.01 0 1.02 0 0 Z " fill="#B3E8D8" transform="translate(3,145)"/>
<path d="M0 0 C0.99 0 1.98 0 3 0 C4.4606285 2.64738916 5 3.89448334 5 7 C4.34 7 3.68 7 3 7 C0 2.61538462 0 2.61538462 0 0 Z " fill="#F3E0A9" transform="translate(187,294)"/>
<path d="M0 0 C0.99 0 1.98 0 3 0 C5.125 4.625 5.125 4.625 4 8 C4 7.34 4 6.68 4 6 C3.34 6 2.68 6 2 6 C0 3 0 3 0 0 Z " fill="#A3BCEC" transform="translate(16,234)"/>
<path d="M0 0 C0 1.32 0 2.64 0 4 C-1.32 4.33 -2.64 4.66 -4 5 C-4.33 4.34 -4.66 3.68 -5 3 C-2.25 0 -2.25 0 0 0 Z " fill="#4CDBA6" transform="translate(27,66)"/>
<path d="M0 0 C0.99 0.33 1.98 0.66 3 1 C2.690625 1.7425 2.38125 2.485 2.0625 3.25 C1.1905075 5.50692176 0.52332993 7.6450153 0 10 C-0.66 10 -1.32 10 -2 10 C-1.46274105 6.62294375 -0.88935377 3.303314 0 0 Z " fill="#58DFA2" transform="translate(65,31)"/>
<path d="M0 0 C1.3921875 0.0928125 1.3921875 0.0928125 2.8125 0.1875 C2.8125 0.8475 2.8125 1.5075 2.8125 2.1875 C-1.6425 2.6825 -1.6425 2.6825 -6.1875 3.1875 C-3.1875 0.1875 -3.1875 0.1875 0 0 Z " fill="#F0B894" transform="translate(219.1875,1.8125)"/>
<path d="M0 0 C-0.33 0.99 -0.66 1.98 -1 3 C-2.98 3 -4.96 3 -7 3 C-6.67 2.01 -6.34 1.02 -6 0 C-3.42525708 -0.99667468 -2.51072708 -1.25536354 0 0 Z " fill="#5283EB" transform="translate(145,315)"/>
<path d="M0 0 C4.3177458 0.50797009 8.03302114 1.19682779 12 3 C12 3.33 12 3.66 12 4 C7.45194365 4.17835515 4.1205746 3.99785435 0 2 C0 1.34 0 0.68 0 0 Z " fill="#4BBFCB" transform="translate(37,177)"/>
<path d="M0 0 C-0.33 0.99 -0.66 1.98 -1 3 C-5.455 2.01 -5.455 2.01 -10 1 C-5.64467851 -1.17766075 -4.53374042 -1.03039555 0 0 Z " fill="#48D2B6" transform="translate(99,108)"/>
<path d="M0 0 C1.98 0.99 1.98 0.99 4 2 C4 2.99 4 3.98 4 5 C4.66 5 5.32 5 6 5 C6 5.66 6 6.32 6 7 C3.5625 6.3125 3.5625 6.3125 1 5 C0.1875 2.375 0.1875 2.375 0 0 Z " fill="#45D3AF" transform="translate(67,90)"/>
<path d="M0 0 C4.455 1.98 4.455 1.98 9 4 C9 4.33 9 4.66 9 5 C5.625 4.75 5.625 4.75 2 4 C1.34 2.68 0.68 1.36 0 0 Z " fill="#F0C6B1" transform="translate(303,44)"/>
<path d="M0 0 C0.99 0.33 1.98 0.66 3 1 C3.33 2.65 3.66 4.3 4 6 C1.525 5.01 1.525 5.01 -1 4 C-0.67 2.68 -0.34 1.36 0 0 Z " fill="#52DF99" transform="translate(172,28)"/>
<path d="M0 0 C0.66 0.33 1.32 0.66 2 1 C2 1.66 2 2.32 2 3 C2.99 3 3.98 3 5 3 C4.67 4.32 4.34 5.64 4 7 C3.34 6.34 2.68 5.68 2 5 C1.34 5 0.68 5 0 5 C-0.5625 3.0625 -0.5625 3.0625 -1 1 C-0.67 0.67 -0.34 0.34 0 0 Z " fill="#63DCA0" transform="translate(167,18)"/>
<path d="M0 0 C0.99 0.99 1.98 1.98 3 3 C2.34 4.32 1.68 5.64 1 7 C0.34 7 -0.32 7 -1 7 C-0.67 4.69 -0.34 2.38 0 0 Z " fill="#FA6A4A" transform="translate(349,151)"/>
<path d="M0 0 C-0.33 0.99 -0.66 1.98 -1 3 C-3.31 3.33 -5.62 3.66 -8 4 C-6.27302455 0.54604909 -3.70696841 0 0 0 Z " fill="#A8E5CC" transform="translate(48,49)"/>
<path d="M0 0 C0.99 0.33 1.98 0.66 3 1 C0.53846154 4.81538462 0.53846154 4.81538462 -2.1875 5.75 C-2.785625 5.8325 -3.38375 5.915 -4 6 C-4 5.34 -4 4.68 -4 4 C-3.34 4 -2.68 4 -2 4 C-2 3.34 -2 2.68 -2 2 C-1.34 2 -0.68 2 0 2 C0 1.34 0 0.68 0 0 Z " fill="#56DD9B" transform="translate(96,8)"/>
</svg>
